<?xml version="1.0" encoding="UTF-8" standalone="no"?>
<!-- Created with Inkscape (http://www.inkscape.org/) -->
<svg
   xmlns:dc="http://purl.org/dc/elements/1.1/"
   xmlns:cc="http://creativecommons.org/ns#"
   xmlns:rdf="http://www.w3.org/1999/02/22-rdf-syntax-ns#"
   xmlns:svg="http://www.w3.org/2000/svg"
   xmlns="http://www.w3.org/2000/svg"
   xmlns:sodipodi="http://sodipodi.sourceforge.net/DTD/sodipodi-0.dtd"
   xmlns:inkscape="http://www.inkscape.org/namespaces/inkscape"
   width="78.408882"
   height="55.551731"
   id="svg2"
   sodipodi:version="0.32"
   inkscape:version="0.46"
   version="1.0"
   sodipodi:docname="Flat_racing_clipart.svg"
   inkscape:output_extension="org.inkscape.output.svg.inkscape"
   sodipodi:docbase="C:\Documents and Settings\moi\Bureau"
   sodipodi:modified="true">
  <defs
     id="defs4">
    <inkscape:perspective
       sodipodi:type="inkscape:persp3d"
       inkscape:vp_x="0 : 27.775866 : 1"
       inkscape:vp_y="0 : 1000 : 0"
       inkscape:vp_z="78.408882 : 27.775866 : 1"
       inkscape:persp3d-origin="39.204441 : 18.517244 : 1"
       id="perspective2447" />
  </defs>
  <sodipodi:namedview
     id="base"
     pagecolor="#ffffff"
     bordercolor="#666666"
     borderopacity="1.0"
     inkscape:pageopacity="0.0"
     inkscape:pageshadow="2"
     inkscape:zoom="7.9195959"
     inkscape:cx="23.171289"
     inkscape:cy="30.45777"
     inkscape:document-units="px"
     inkscape:current-layer="g2168"
     inkscape:window-width="1024"
     inkscape:window-height="712"
     inkscape:window-x="132"
     inkscape:window-y="61"
     showgrid="false" />
  <metadata
     id="metadata7">
    <rdf:RDF>
      <cc:Work
         rdf:about="">
        <dc:format>image/svg+xml</dc:format>
        <dc:type
           rdf:resource="http://purl.org/dc/dcmitype/StillImage" />
      </cc:Work>
    </rdf:RDF>
  </metadata>
  <g
     inkscape:label="Calque 1"
     inkscape:groupmode="layer"
     id="layer1"
     transform="translate(-299.5842,-101.55467)">
    <g
       id="g2168"
       transform="matrix(1.0476113,0,0,1.0476113,-16.265675,-6.0829925)">
      <path
         style="opacity:1;fill:#000000;fill-opacity:1;fill-rule:evenodd;stroke:none;stroke-width:1px;stroke-linecap:butt;stroke-linejoin:miter;stroke-opacity:1"
         d="M 23.78125 3.03125 C 22.675001 3.138823 21.570925 3.948271 20.8125 4.75 C 20.856101 5.9693776 18.826536 6.2144805 20.21875 6.96875 C 21.778003 7.216709 20.66139 8.804797 21.21875 9.25 C 21.54552 10.140648 22.623757 11.106048 23.34375 9.90625 C 24.877494 10.966014 26.299943 12.150643 27.25 13.78125 C 27.205675 14.596899 25.403323 15.12051 24.6875 14.5625 C 23.557671 14.105595 23.536933 12.458783 22.875 14.3125 C 22.612551 15.708264 20.948612 16.099759 19.875 15.3125 C 22.101686 14.176114 18.734832 14.955451 19.90625 14.25 C 21.057647 13.542066 17.459796 14.49232 19.78125 13.375 C 17.67444 13.943539 19.6201 12.538518 17.90625 12.8125 C 18.743584 12.37309 19.108597 12.102915 17.28125 12.34375 C 19.565356 11.50167 15.997527 11.946168 17.46875 11.375 C 17.174475 11.167143 16.08197 11.129874 16.75 10.8125 C 14.403109 10.892852 17.924307 9.8476566 15.6875 10 C 16.111374 9.4253751 15.613271 9.5027342 15.15625 9.5 C 16.33057 8.598468 12.788234 9.5290146 13.21875 8.65625 C 13.982249 7.8885294 14.132458 5.9294931 12.90625 6.3125 C 12.306545 6.6604326 10.861422 9.114494 11 7.625 C 11.513277 6.7471645 10.094432 4.5793528 10 6.3125 C 9.8091885 9.1271067 7.1349767 10.602504 5.375 12.4375 C 4.428368 14.994698 1.1981077 16.534125 0.4375 18.59375 C 0.016695488 19.733237 2.084016 21.195764 3.65625 21.3125 C 5.0234247 21.961506 5.5314536 21.233853 6.28125 20.25 C 8.1617856 19.08865 10.290506 18.293494 12.21875 17.1875 C 12.680359 19.910912 13.58142 22.531639 14.875 24.96875 C 16.419671 27.102074 16.478868 29.952255 18.1875 31.96875 C 18.44584 32.955422 19.32194 33.964844 19.1875 34.9375 C 18.60773 36.712372 17.158365 37.834468 15.9375 39.15625 C 14.956674 39.793703 15.278385 41.295032 15.90625 42.0625 C 17.627329 43.484844 18.650215 45.566761 20.15625 47.21875 C 21.92798 47.488983 23.643162 48.113203 25.4375 48.21875 C 27.399968 48.804084 26.157701 47.628714 25.4375 46.75 C 24.948862 45.622521 23.640532 45.818072 22.8125 46 C 22.395801 44.833853 21.101802 44.940512 20.25 44.125 C 19.366203 42.918279 17.388297 41.729889 18.28125 40.03125 C 20.218544 39.306735 22.097181 38.402203 24 37.59375 C 24.467684 37.687283 24.938576 37.781468 25.40625 37.875 C 25.878282 40.494921 25.827716 43.192119 26.46875 45.78125 C 26.398109 47.196344 27.955302 47.450169 28.875 48.15625 C 30.192464 47.478961 31.65514 47.534615 33.09375 47.5 C 33.067131 48.021304 31.763068 49.183263 31.21875 49.9375 C 29.915824 51.161583 31.850802 51.34527 32.8125 51.15625 C 33.676225 51.139469 35.190881 50.024405 34.28125 49.09375 C 35.703603 48.946248 36.821919 48.068122 38 47.34375 C 39.1721 46.058354 39.661232 47.115289 40.09375 48.34375 C 40.637828 47.45146 42.185 46.815766 41.59375 45.625 C 42.81954 45.031164 43.98741 44.361774 45.1875 43.71875 C 46.498503 43.365277 46.891796 42.444329 46.71875 41.15625 C 48.061055 40.669197 49.469252 40.318245 50.84375 39.9375 C 51.766833 39.784509 53.40863 39.230669 53.03125 38.09375 C 52.72693 37.023271 51.485818 36.59491 51.125 35.4375 C 50.435201 34.54235 49.159284 33.518556 50.9375 33.15625 C 52.623443 32.11004 54.319727 30.972607 55.71875 29.5625 C 56.643477 28.807287 57.094829 27.801939 57.1875 26.625 C 57.319919 25.499583 56.374965 24.463789 57.90625 23.875 C 59.217033 23.640115 60.604362 24.488568 61.90625 24.8125 C 63.102833 24.846841 64.219738 25.097161 65.25 25.75 C 68.592799 27.658842 71.542156 30.311682 75.1875 31.6875 C 76.104157 31.793382 77.433274 33.404226 78.03125 32.34375 C 78.714541 31.421641 76.682572 29.957619 76.09375 29.21875 C 75.226733 28.130785 74.222175 28.045534 72.90625 27.3125 C 70.416096 25.89878 70.561094 26.020215 69.09375 25.1875 C 65.792305 23.626088 62.263205 22.5898 58.875 21.21875 C 55.89021 20.45128 53.658735 18.131 50.75 17.21875 C 47.937489 15.918099 44.883183 17.050672 41.96875 17.1875 C 39.09244 17.146926 36.366357 18.053917 33.53125 18.375 C 32.631426 18.224333 30.915858 19.084604 30.65625 17.9375 C 31.836603 17.160728 33.16707 16.828301 34.53125 16.53125 C 36.380872 15.948212 38.458255 15.584019 39.84375 14.125 C 40.138434 12.992239 40.131073 11.37265 39.15625 10.46875 C 37.935239 9.3111923 39.808841 8.7711883 38.8125 8.0625 C 37.454577 7.5658698 35.857182 7.5601345 34.40625 7.28125 C 31.678041 6.6841115 28.864902 6.9956889 26.15625 6.34375 C 26.924001 5.4436738 26.270748 4.1286503 25.46875 3.53125 C 25.074625 3.2161992 24.669592 3.0720396 24.25 3.03125 C 24.092653 3.0159539 23.939286 3.0158824 23.78125 3.03125 z M 41.6875 31.46875 L 42.34375 31.59375 L 42.84375 40.15625 L 41.4375 40.6875 L 40.5 41.0625 L 39.9375 41.96875 L 39.75 42.71875 L 38.8125 42.78125 L 37.84375 43.25 L 37.8125 44 C 37.8125 44.000003 36.96811 44.499787 36.6875 44.40625 C 36.40689 44.312717 34.65625 44.6875 34.65625 44.6875 L 33.5 45.125 L 33.3125 45.59375 L 29.9375 45.875 L 29.09375 45.90625 L 29 45.5 L 29.46875 42.71875 L 29.71875 37.71875 L 30.46875 36.40625 L 32.5625 35.65625 L 35.03125 35.1875 L 37.1875 34.40625 L 40.40625 32.40625 L 41.6875 31.46875 z M 47.03125 36.78125 C 47.060532 36.756985 47.086474 36.745568 47.125 36.78125 C 47.261473 36.875693 47.364356 37.028326 47.46875 37.15625 C 47.575395 37.331411 47.662996 37.502188 47.75 37.6875 C 47.779195 37.752241 47.803291 37.83496 47.8125 37.90625 C 47.830676 37.991045 47.856824 38.071446 47.875 38.15625 C 47.739629 38.246629 47.610272 38.326003 47.46875 38.40625 C 47.350203 38.487043 47.255951 38.59464 47.125 38.65625 C 47.01407 38.682963 46.892077 38.633779 46.78125 38.625 C 46.797287 38.295966 46.795539 37.985179 46.8125 37.65625 C 46.852852 37.402657 46.909801 37.15621 46.96875 36.90625 C 46.973181 36.867938 47.001968 36.805515 47.03125 36.78125 z "
         transform="matrix(0.9545525,0,0,0.9545525,301.49529,102.7458)"
         id="path2301" />
      <path
         transform="matrix(0.6313364,0,0,0.6313364,302.45862,108.36378)"
         d="M 8.75 18.810659 A 0.46875 0.49107143 0 1 1  7.8125,18.810659 A 0.46875 0.49107143 0 1 1  8.75 18.810659 z"
         sodipodi:ry="0.49107143"
         sodipodi:rx="0.46875"
         sodipodi:cy="18.810659"
         sodipodi:cx="8.28125"
         id="path2322"
         style="opacity:1;color:#000000;fill:#1a1a1a;fill-opacity:1;fill-rule:nonzero;stroke:#191917;stroke-width:1;stroke-linecap:butt;stroke-linejoin:miter;marker:none;marker-start:none;marker-mid:none;marker-end:none;stroke-miterlimit:4;stroke-dasharray:none;stroke-dashoffset:0;stroke-opacity:1;visibility:visible;display:inline;overflow:visible;enable-background:accumulate"
         sodipodi:type="arc" />
      <path
         id="path2324"
         d="M 308.0842,120.11087 C 308.0842,120.11087 308.0842,120.11087 308.0842,120.11087 C 309.46016,120.09901 310.80301,119.62894 312.18693,119.78586 C 313.19498,119.77968 314.14822,119.34251 315.16535,119.44633 C 316.09033,119.47133 317.05336,119.4836 317.90221,119.06312 C 319.20507,118.69423 320.67954,119.03768 321.87052,118.26897 C 322.52249,117.99667 323.34618,118.05362 323.84312,117.47694"
         style="fill:#1e2021;fill-opacity:0.431694;fill-rule:evenodd;stroke:#131313;stroke-width:1.00037098;stroke-linecap:butt;stroke-linejoin:miter;stroke-miterlimit:4;stroke-dasharray:none;stroke-opacity:1"
         sodipodi:nodetypes="csccccc" />
    </g>
  </g>
</svg>
